<svg width="85" height="85" viewBox="0 0 85 85" fill="none" xmlns="http://www.w3.org/2000/svg">
<path opacity="0.4" d="M76.6134 55.9309L54.2134 15.6109C51.2034 10.1859 47.0384 7.21094 42.4534 7.21094C37.8684 7.21094 33.7034 10.1859 30.6934 15.6109L8.29341 55.9309C5.45841 61.0759 5.14341 66.0109 7.41841 69.8959C9.69341 73.7809 14.1734 75.9159 20.0534 75.9159H64.8534C70.7334 75.9159 75.2134 73.7809 77.4884 69.8959C79.7634 66.0109 79.4484 61.0409 76.6134 55.9309Z" fill="#FFA500"/>
<path d="M42.4535 51.8359C41.0185 51.8359 39.8285 50.6459 39.8285 49.2109V31.7109C39.8285 30.2759 41.0185 29.0859 42.4535 29.0859C43.8885 29.0859 45.0785 30.2759 45.0785 31.7109V49.2109C45.0785 50.6459 43.8885 51.8359 42.4535 51.8359Z" fill="#FFA500"/>
<path d="M42.4535 63.2119C42.2435 63.2119 41.9985 63.1769 41.7535 63.1419C41.5435 63.1069 41.3335 63.0369 41.1235 62.9319C40.9135 62.8619 40.7035 62.7569 40.4935 62.6169C40.3185 62.4769 40.1435 62.3369 39.9685 62.1969C39.3385 61.5319 38.9535 60.6219 38.9535 59.7119C38.9535 58.8019 39.3385 57.8919 39.9685 57.2269C40.1435 57.0869 40.3185 56.9469 40.4935 56.8069C40.7035 56.6669 40.9135 56.5619 41.1235 56.4919C41.3335 56.3869 41.5435 56.3169 41.7535 56.2819C42.2085 56.1769 42.6985 56.1769 43.1185 56.2819C43.3635 56.3169 43.5735 56.3869 43.7835 56.4919C43.9935 56.5619 44.2035 56.6669 44.4135 56.8069C44.5885 56.9469 44.7635 57.0869 44.9385 57.2269C45.5685 57.8919 45.9535 58.8019 45.9535 59.7119C45.9535 60.6219 45.5685 61.5319 44.9385 62.1969C44.7635 62.3369 44.5885 62.4769 44.4135 62.6169C44.2035 62.7569 43.9935 62.8619 43.7835 62.9319C43.5735 63.0369 43.3635 63.1069 43.1185 63.1419C42.9085 63.1769 42.6635 63.2119 42.4535 63.2119Z" fill="#FFA500"/>
</svg>
