<svg xmlns="http://www.w3.org/2000/svg" width="19.355" height="17.73" viewBox="0 0 19.355 17.73">
  <g id="shopping-cart" transform="translate(0.1 -21.605)">
    <g id="Group_12733"  transform="translate(12.778 34.459)">
      <g id="Group_12732" >
        <path id="Path_10953"  d="M343.935,362.612A2.388,2.388,0,1,0,346.324,365,2.391,2.391,0,0,0,343.935,362.612Zm0,3.344a.955.955,0,1,1,.955-.955A.956.956,0,0,1,343.935,365.956Z" transform="translate(-341.547 -362.612)"/>
        <path id="Path_10953_-_Outline"  d="M343.935,362.512A2.488,2.488,0,1,1,341.447,365,2.491,2.491,0,0,1,343.935,362.512Zm0,4.777A2.288,2.288,0,1,0,341.647,365,2.291,2.291,0,0,0,343.935,367.289Zm0-3.344A1.055,1.055,0,1,1,342.88,365,1.057,1.057,0,0,1,343.935,363.945Zm0,1.911a.855.855,0,1,0-.855-.855A.856.856,0,0,0,343.935,365.856Z" transform="translate(-341.547 -362.612)"/>
      </g>
    </g>
    <g id="Group_12735" transform="translate(0 21.705)">
      <g id="Group_12734" transform="translate(0 0)">
        <path id="Path_10954" d="M19,25.228a.716.716,0,0,0-.564-.275H4.423l-.645-2.7a.717.717,0,0,0-.7-.55H.717a.716.716,0,1,0,0,1.433h1.8l2.329,9.743a.717.717,0,0,0,.7.55H16.695a.716.716,0,0,0,.7-.544l1.744-7.046A.718.718,0,0,0,19,25.228ZM16.134,32H6.107L4.765,26.386H17.523Z" transform="translate(0 -21.705)"/>
        <path id="Path_10954_-_Outline" d="M.716,21.605H3.081a.814.814,0,0,1,.794.627L4.5,24.853H18.438a.817.817,0,0,1,.793,1.013l-1.744,7.046a.815.815,0,0,1-.793.62H5.541a.814.814,0,0,1-.794-.627l-2.31-9.667H.716a.816.816,0,0,1,0-1.633ZM16.695,33.331a.615.615,0,0,0,.6-.468l1.744-7.046a.617.617,0,0,0-.6-.765H4.344l-.663-2.775a.615.615,0,0,0-.6-.473H.716a.616.616,0,0,0,0,1.233H2.594l2.347,9.82a.615.615,0,0,0,.6.473ZM4.639,26.286H17.65L16.212,32.1H6.028Zm12.756.2H4.892L6.185,31.9h9.87Z" transform="translate(0 -21.705)"/>
      </g>
    </g>
    <g id="Group_12737" transform="translate(4.108 34.459)">
      <g id="Group_12736">
        <path id="Path_10955" d="M112.194,362.612A2.388,2.388,0,1,0,114.583,365,2.391,2.391,0,0,0,112.194,362.612Zm0,3.344a.955.955,0,1,1,.955-.955A.956.956,0,0,1,112.194,365.956Z" transform="translate(-109.806 -362.612)"/>
        <path id="Path_10955_-_Outline" d="M112.194,362.512A2.488,2.488,0,1,1,109.706,365,2.491,2.491,0,0,1,112.194,362.512Zm0,4.777A2.288,2.288,0,1,0,109.906,365,2.291,2.291,0,0,0,112.194,367.289Zm0-3.344A1.055,1.055,0,1,1,111.139,365,1.057,1.057,0,0,1,112.194,363.945Zm0,1.911a.855.855,0,1,0-.855-.855A.856.856,0,0,0,112.194,365.856Z" transform="translate(-109.806 -362.612)"/>
      </g>
    </g>
  </g>
</svg>
