<svg width="10" height="10" viewBox="0 0 10 10" fill="none" xmlns="http://www.w3.org/2000/svg">
<path d="M8.95835 4.53474V1.7057C8.95835 1.08165 8.69169 0.832031 8.02919 0.832031H6.34585C5.68335 0.832031 5.41669 1.08165 5.41669 1.7057V4.53474C5.41669 5.15879 5.68335 5.40842 6.34585 5.40842H8.02919C8.69169 5.40842 8.95835 5.15879 8.95835 4.53474Z" fill="#292D32"/>
<path d="M4.58335 5.45082V8.27986C4.58335 8.90391 4.31669 9.15353 3.65419 9.15353H1.97085C1.30835 9.15353 1.04169 8.90391 1.04169 8.27986V5.45082C1.04169 4.82677 1.30835 4.57715 1.97085 4.57715H3.65419C4.31669 4.57715 4.58335 4.82677 4.58335 5.45082Z" fill="#292D32"/>
<path d="M8.95835 8.27978V7.11488C8.95835 6.49083 8.69169 6.24121 8.02919 6.24121H6.34585C5.68335 6.24121 5.41669 6.49083 5.41669 7.11488V8.27978C5.41669 8.90384 5.68335 9.15346 6.34585 9.15346H8.02919C8.69169 9.15346 8.95835 8.90384 8.95835 8.27978Z" fill="#292D32"/>
<path d="M4.58335 2.8706V1.7057C4.58335 1.08165 4.31669 0.832031 3.65419 0.832031H1.97085C1.30835 0.832031 1.04169 1.08165 1.04169 1.7057V2.8706C1.04169 3.49466 1.30835 3.74428 1.97085 3.74428H3.65419C4.31669 3.74428 4.58335 3.49466 4.58335 2.8706Z" fill="#292D32"/>
</svg>
