<svg width="24" height="24" viewBox="0 0 24 24" fill="none" xmlns="http://www.w3.org/2000/svg">
<path d="M22.0007 8.27V4.23C22.0007 2.64 21.3607 2 19.7707 2H15.7307C14.1407 2 13.5007 2.64 13.5007 4.23V8.27C13.5007 9.86 14.1407 10.5 15.7307 10.5H19.7707C21.3607 10.5 22.0007 9.86 22.0007 8.27Z" stroke="#A8A8AA" stroke-width="1.5" stroke-linecap="round" stroke-linejoin="round"/>
<path d="M10.5007 8.52V3.98C10.5007 2.57 9.86073 2 8.27073 2H4.23073C2.64073 2 2.00073 2.57 2.00073 3.98V8.51C2.00073 9.93 2.64073 10.49 4.23073 10.49H8.27073C9.86073 10.5 10.5007 9.93 10.5007 8.52Z" stroke="#A8A8AA" stroke-width="1.5" stroke-linecap="round" stroke-linejoin="round"/>
<path d="M10.5007 19.77V15.73C10.5007 14.14 9.86073 13.5 8.27073 13.5H4.23073C2.64073 13.5 2.00073 14.14 2.00073 15.73V19.77C2.00073 21.36 2.64073 22 4.23073 22H8.27073C9.86073 22 10.5007 21.36 10.5007 19.77Z" stroke="#A8A8AA" stroke-width="1.5" stroke-linecap="round" stroke-linejoin="round"/>
<path d="M14.5007 17.5H20.5007" stroke="#A8A8AA" stroke-width="1.5" stroke-linecap="round"/>
<path d="M17.5007 20.5V14.5" stroke="#A8A8AA" stroke-width="1.5" stroke-linecap="round"/>
</svg>
