<svg width="20" height="20" viewBox="0 0 20 20" fill="none" xmlns="http://www.w3.org/2000/svg">
<path d="M16.1417 4.07461L11.2583 1.89961C10.5416 1.58294 9.45832 1.58294 8.74165 1.89961L3.85832 4.07461C2.62498 4.62461 2.44165 5.37461 2.44165 5.77461C2.44165 6.17461 2.62498 6.92461 3.85832 7.47461L8.74165 9.64961C9.09998 9.80794 9.54998 9.89128 9.99998 9.89128C10.45 9.89128 10.9 9.80794 11.2583 9.64961L16.1417 7.47461C17.375 6.92461 17.5583 6.17461 17.5583 5.77461C17.5583 5.37461 17.3833 4.62461 16.1417 4.07461Z" fill="#292D32"/>
<path opacity="0.4" d="M10 14.1993C9.68335 14.1993 9.36668 14.1327 9.07502 14.0077L3.45835 11.5077C2.60002 11.1243 1.93335 10.0993 1.93335 9.15768C1.93335 8.81602 2.20835 8.54102 2.55002 8.54102C2.89168 8.54102 3.16668 8.81602 3.16668 9.15768C3.16668 9.60768 3.54168 10.191 3.95835 10.3743L9.57502 12.8743C9.84168 12.991 10.15 12.991 10.4167 12.8743L16.0334 10.3743C16.45 10.191 16.825 9.61602 16.825 9.15768C16.825 8.81602 17.1 8.54102 17.4417 8.54102C17.7834 8.54102 18.0584 8.81602 18.0584 9.15768C18.0584 10.091 17.3917 11.1243 16.5334 11.5077L10.9167 14.0077C10.6334 14.1327 10.3167 14.1993 10 14.1993Z" fill="#292D32"/>
<path opacity="0.4" d="M10 18.3341C9.68335 18.3341 9.36668 18.2674 9.07502 18.1424L3.45835 15.6424C2.53335 15.2341 1.93335 14.3091 1.93335 13.2924C1.93335 12.9508 2.20835 12.6758 2.55002 12.6758C2.89168 12.6758 3.16668 12.9508 3.16668 13.2924C3.16668 13.8174 3.47502 14.2924 3.95835 14.5091L9.57502 17.0091C9.84168 17.1258 10.15 17.1258 10.4167 17.0091L16.0334 14.5091C16.5084 14.3008 16.825 13.8174 16.825 13.2924C16.825 12.9508 17.1 12.6758 17.4417 12.6758C17.7834 12.6758 18.0584 12.9508 18.0584 13.2924C18.0584 14.3091 17.4584 15.2258 16.5334 15.6424L10.9167 18.1424C10.6334 18.2674 10.3167 18.3341 10 18.3341Z" fill="#292D32"/>
</svg>
